<svg xmlns="http://www.w3.org/2000/svg" xmlns:xlink="http://www.w3.org/1999/xlink" width="93.98mm" height="55.88mm" viewBox="4037.6 3039.5 370 220"><title></title><style type="text/css">
*[layerid="1"] {stroke:#000000;fill:#000000;}
*[layerid="2"] {stroke:#000000;fill:#000000;}
*[layerid="3"] {stroke:#000000;fill:#000000;}
*[layerid="4"] {stroke:#000000;fill:#000000;}
*[layerid="5"] {stroke:#000000;fill:#000000;}
*[layerid="6"] {stroke:#000000;fill:#000000;}
*[layerid="7"] {stroke:#000000;fill:#000000;}
*[layerid="8"] {stroke:#000000;fill:#000000;}
*[layerid="9"] {stroke:#000000;fill:#000000;}
*[layerid="10"] {stroke:#000000;fill:#000000;}
*[layerid="11"] {stroke:#000000;fill:#000000;}
*[layerid="12"] {stroke:#000000;fill:#000000;}
*[layerid="13"] {stroke:#000000;fill:#000000;}
*[layerid="14"] {stroke:#000000;fill:#000000;}
*[layerid="15"] {stroke:#000000;fill:#000000;}
*[layerid="19"] {stroke:#000000;fill:#000000;}
*[layerid="21"] {stroke:#000000;fill:#000000;}
*[layerid="22"] {stroke:#000000;fill:#000000;}
*[layerid="23"] {stroke:#000000;fill:#000000;}
*[layerid="24"] {stroke:#000000;fill:#000000;}
*[layerid="25"] {stroke:#000000;fill:#000000;}
*[layerid="26"] {stroke:#000000;fill:#000000;}
*[layerid="27"] {stroke:#000000;fill:#000000;}
*[layerid="28"] {stroke:#000000;fill:#000000;}
*[layerid="29"] {stroke:#000000;fill:#000000;}
*[layerid="30"] {stroke:#000000;fill:#000000;}
*[layerid="31"] {stroke:#000000;fill:#000000;}
*[layerid="32"] {stroke:#000000;fill:#000000;}
*[layerid="33"] {stroke:#000000;fill:#000000;}
*[layerid="34"] {stroke:#000000;fill:#000000;}
*[layerid="35"] {stroke:#000000;fill:#000000;}
*[layerid="36"] {stroke:#000000;fill:#000000;}
*[layerid="37"] {stroke:#000000;fill:#000000;}
*[layerid="38"] {stroke:#000000;fill:#000000;}
*[layerid="39"] {stroke:#000000;fill:#000000;}
*[layerid="40"] {stroke:#000000;fill:#000000;}
*[layerid="41"] {stroke:#000000;fill:#000000;}
*[layerid="42"] {stroke:#000000;fill:#000000;}
*[layerid="43"] {stroke:#000000;fill:#000000;}
*[layerid="44"] {stroke:#000000;fill:#000000;}
*[layerid="45"] {stroke:#000000;fill:#000000;}
*[layerid="46"] {stroke:#000000;fill:#000000;}
*[layerid="47"] {stroke:#000000;fill:#000000;}
*[layerid="48"] {stroke:#000000;fill:#000000;}
*[layerid="49"] {stroke:#000000;fill:#000000;}
*[layerid="50"] {stroke:#000000;fill:#000000;}
*[layerid="51"] {stroke:#000000;fill:#000000;}
*[layerid="52"] {stroke:#000000;fill:#000000;}
*[layerid="99"] {stroke:#000000;fill:#000000;}
*[layerid="100"] {stroke:#000000;fill:#000000;}
*[layerid="101"] {stroke:#000000;fill:#000000;}
*[layerid="Hole"] {stroke:#000000;fill:#000000;}
*[layerid="DRCError"] {stroke:#000000;fill:#000000;}
*[fill="none"] {fill: none;}
*[stroke="none"] {stroke: none;}
path, polyline, polygon, line {stroke-linecap:round;}
g[c_partid="part_pad"][layerid="1"] ellipse:not([c_etype="pad_outer"]) {fill:#000000;}
g[c_partid="part_pad"][layerid="1"] polygon:not([c_etype="pad_outer"]) {fill:#000000;}
g[c_partid="part_pad"][layerid="1"] polyline:not([c_etype="pad_outer"]) {stroke:#000000;}
g[c_partid="part_pad"][layerid="2"] ellipse:not([c_etype="pad_outer"]) {fill:#000000;}
g[c_partid="part_pad"][layerid="2"] polygon:not([c_etype="pad_outer"]) {fill:#000000;}
g[c_partid="part_pad"][layerid="2"] polyline:not([c_etype="pad_outer"]) {stroke:#000000;}
g[c_partid="part_pad"][layerid="11"] ellipse:not([c_etype="pad_outer"]) {fill:#000000;}
g[c_partid="part_pad"][layerid="11"] polygon:not([c_etype="pad_outer"]) {fill:#000000;}
g[c_partid="part_pad"][layerid="11"] polyline:not([c_etype="pad_outer"]) {stroke:#000000;}
g[c_partid="part_pad"][layerid="11"] circle {fill:#FFFFFF;}
g[c_partid="part_pad"][layerid="11"] > polyline:nth-of-type(2) {stroke:#FFFFFF;}
g[c_partid="part_pad"][layerid="11"][c_shape="ELLIPSE"]  polyline:nth-last-of-type(1) {stroke:#FFFFFF;}
g[c_partid="part_pad"][layerid="11"][c_shape="RECT"]  polyline:nth-last-of-type(1) {stroke:#FFFFFF;}
g[c_partid="part_pad"][layerid="11"][c_shape="POLYGON"]  polyline:nth-last-of-type(1) {stroke:#FFFFFF;}
g[c_partid="part_via"] > * + circle, #gCurParts g[c_partid="part_via"] > * + circle {fill:#FFFFFF;}
g[c_partid="part_pad"] > polygon[c_etype="pad_outer"], #gCurParts g[c_partid="part_pad"] > polygon[c_etype="pad_outer"] {stroke-linejoin: round;stroke-miterlimit: 100;}
g[c_partid="part_hole"] > circle {fill: #FFFFFF;}path, polyline, polygon {stroke-linejoin:round;}
rect, circle, ellipse, polyline, line, polygon, path {shape-rendering:crispEdges;}
</style>
<rect x="4037.6" y="3039.5" width="370" height="220" fill="#FFFFFF" stroke="none"/><polyline points="4245.5321 3090.0592 4280 3124.5271 4280 3151" stroke-width="1"  stroke-linecap="round" fill="none" layerid="1" net="U1_1" id="gge1101" locked="0" /><polyline points="4155.5001 3226.386 4264.3081 3226.386 4270.3311 3232.409" stroke-width="1"  stroke-linecap="round" fill="none" layerid="1" net="U2_1" id="gge1071" locked="0" /><polyline points="4245.5321 3082.856 4247.5001 3082.856" stroke-width="1"  stroke-linecap="round" fill="none" layerid="1" net="U1_7" id="gge1068" locked="0" /><polyline points="4247.5001 3084.941 4247.5001 3082.856" stroke-width="1"  stroke-linecap="round" fill="none" layerid="1" net="U1_7" id="gge1065" locked="0" /><polyline points="4245.5321 3084.941 4245.5321 3083.419" stroke-width="1"  stroke-linecap="round" fill="none" layerid="1" net="U1_7" id="gge1062" locked="0" /><polyline points="4245.5321 3083.419 4245.5321 3082.856" stroke-width="1"  stroke-linecap="round" fill="none" layerid="1" net="U1_7" id="gge1059" locked="0" /><polyline points="4155.5001 3149.614 4155.5001 3124.294 4196.6611 3083.133" stroke-width="1"  stroke-linecap="round" fill="none" layerid="1" net="U1_7" id="gge1056" locked="0" /><polyline points="4245.5321 3083.419 4245.2471 3083.134 4245.2471 3083.133 4196.6611 3083.133" stroke-width="1"  stroke-linecap="round" fill="none" layerid="1" net="U1_7" id="gge1053" locked="0" /><polyline points="4196.6611 3083.133 4180.5001 3066.972" stroke-width="1"  stroke-linecap="round" fill="none" layerid="1" net="U1_7" id="gge1050" locked="0" /><polyline points="4245.8411 3093.804 4273.7681 3121.731 4273.7681 3233.312 4271.2101 3235.87 4263.8721 3235.87 4261.6691 3233.667 4261.6691 3232.409" stroke-width="1"  stroke-linecap="round" fill="none" layerid="1" net="U1_2" id="gge1047" locked="0" /><polyline points="4247.5001 3090.059 4247.5001 3092.145 4245.8411 3093.804" stroke-width="1"  stroke-linecap="round" fill="none" layerid="1" net="U1_2" id="gge1044" locked="0" /><polyline points="4245.8411 3093.804 4212.7231 3093.804 4212.7231 3093.805 4180.5001 3126.028" stroke-width="1"  stroke-linecap="round" fill="none" layerid="1" net="U1_2" id="gge1041" locked="0" /><polyline points="4295.0001 3146 4293.3861 3146 4292.7361 3145.35 4292.7361 3064.642 4292.7401 3064.545 4292.7521 3064.448 4292.7721 3064.353 4292.7991 3064.26 4292.8341 3064.17 4292.8771 3064.082 4292.9261 3063.999 4292.9831 3063.92 4293.0451 3063.845 4293.1141 3063.776 4293.1871 3063.713 4293.2661 3063.656 4293.3491 3063.606 4293.4371 3063.563 4293.5271 3063.527 4293.6201 3063.499 4293.7151 3063.478 4293.8111 3063.466 4293.9081 3063.461 4293.9171 3063.461" stroke-width="1"  stroke-linecap="round" fill="none" layerid="1" net="U1_8" id="gge1035" locked="0" /><polyline points="4245.1381 3087.5 4242.4141 3087.5" stroke-width="1"  stroke-linecap="round" fill="none" layerid="1" net="U1_8" id="gge1029" locked="0" /><polyline points="4372.264 3232.358 4372.264 3064.642" stroke-width="1.181"  stroke-linecap="round" fill="none" layerid="1" net="" id="gge21" locked="0" /><polyline points="4374.626 3232.358 4374.626 3064.642" stroke-width="1.181"  stroke-linecap="round" fill="none" layerid="1" net="" id="gge24" locked="0" /><polyline points="4376.988 3232.358 4376.988 3064.642" stroke-width="1.181"  stroke-linecap="round" fill="none" layerid="1" net="" id="gge27" locked="0" /><polyline points="4379.35 3232.358 4379.35 3064.642" stroke-width="1.181"  stroke-linecap="round" fill="none" layerid="1" net="" id="gge30" locked="0" /><polyline points="4381.712 3232.358 4381.712 3064.642" stroke-width="1.181"  stroke-linecap="round" fill="none" layerid="1" net="" id="gge33" locked="0" /><polyline points="4293.917 3233.539 4371.083 3233.539" stroke-width="1.181"  stroke-linecap="round" fill="none" layerid="1" net="" id="gge36" locked="0" /><polyline points="4293.917 3235.901 4371.083 3235.901" stroke-width="1.181"  stroke-linecap="round" fill="none" layerid="1" net="" id="gge39" locked="0" /><polyline points="4293.917 3238.264 4371.083 3238.264" stroke-width="1.181"  stroke-linecap="round" fill="none" layerid="1" net="" id="gge42" locked="0" /><polyline points="4293.917 3240.626 4371.083 3240.626" stroke-width="1.181"  stroke-linecap="round" fill="none" layerid="1" net="" id="gge45" locked="0" /><polyline points="4293.917 3242.988 4371.083 3242.988" stroke-width="1.181"  stroke-linecap="round" fill="none" layerid="1" net="" id="gge48" locked="0" /><polyline points="4293.917 3063.461 4371.083 3063.461" stroke-width="1.181"  stroke-linecap="round" fill="none" layerid="1" net="" id="gge51" locked="0" /><polyline points="4293.917 3061.099 4371.083 3061.099" stroke-width="1.181"  stroke-linecap="round" fill="none" layerid="1" net="" id="gge54" locked="0" /><polyline points="4293.917 3058.736 4371.083 3058.736" stroke-width="1.181"  stroke-linecap="round" fill="none" layerid="1" net="" id="gge57" locked="0" /><polyline points="4293.917 3056.374 4371.083 3056.374" stroke-width="1.181"  stroke-linecap="round" fill="none" layerid="1" net="" id="gge60" locked="0" /><polyline points="4293.917 3054.012 4371.083 3054.012" stroke-width="1.181"  stroke-linecap="round" fill="none" layerid="1" net="" id="gge63" locked="0" /><polyline points="4292.736 3232.358 4292.736 3148.5 4290.374 3146.138 4290.374 3064.642" stroke-width="1.181"  stroke-linecap="round" fill="none" layerid="1" net="" id="gge126" locked="0" /><polyline points="4288.012 3232.358 4288.012 3150.075 4285.65 3147.713 4285.65 3064.642" stroke-width="1.181"  stroke-linecap="round" fill="none" layerid="1" net="" id="gge129" locked="0" /><polyline points="4290.374 3232.358 4290.374 3149.287 4288.012 3146.925 4288.012 3064.642" stroke-width="1.181"  stroke-linecap="round" fill="none" layerid="1" net="" id="gge132" locked="0" /><polyline points="4285.65 3232.358 4285.65 3150.862 4283.287 3148.5 4283.287 3064.642" stroke-width="1.181"  stroke-linecap="round" fill="none" layerid="1" net="" id="gge135" locked="0" /><polyline points="4292.736 3064.642 4292.736 3145.35 4293.386 3146 4295 3146" stroke-width="1.181"  stroke-linecap="round" fill="none" layerid="1" net="" id="gge138" locked="0" /><polyline points="4279.5 3151 4280 3151 4282.638 3151 4283.287 3151.65 4283.287 3232.358" stroke-width="1.181"  stroke-linecap="round" fill="none" layerid="1" net="" id="gge141" locked="0" /><g c_partid="part_pad" c_etype="pinpart" c_origin="4280,3151" layerid="1" number="P$1" net="U1_1" plated ="Y"  id="gge144" locked="0" c_rotation="180" c_width="2.953" c_height="1.181" title="U1_1" c_shape="RECT" pasteexpansion="0" solderexpansion="0.2"><polygon  c_etype="pad_shell" points="4281.4765 3151.5905 4278.5235 3151.5905 4278.5235 3150.4095 4281.4765 3150.4095" layerid="1" stroke-width="0" /><circle c_etype="pad_hole" cx="4280" cy="3151" r="0" layerid="1" stroke-width="0"/></g><g c_partid="part_pad" c_etype="pinpart" c_origin="4270.331,3232.409" layerid="1" number="1" net="U2_1" plated ="Y"  id="gge324" locked="0" c_rotation="90" c_width="1.9685" c_height="3.5433" title="U2_1" c_shape="RECT" pasteexpansion="0" solderexpansion="0.2"><polygon  c_etype="pad_shell" points="4268.5591 3233.3936 4268.5591 3231.4251 4272.1023 3231.4251 4272.1023 3233.3936" layerid="1" stroke-width="0" /><circle c_etype="pad_hole" cx="4270.331" cy="3232.4094" r="0" layerid="1" stroke-width="0"/></g><g c_partid="part_pad" c_etype="pinpart" c_origin="4261.669,3232.409" layerid="1" number="2" net="U1_2" plated ="Y"  id="gge339" locked="0" c_rotation="90" c_width="1.9685" c_height="3.5433" title="U1_2" c_shape="RECT" pasteexpansion="0" solderexpansion="0.2"><polygon  c_etype="pad_shell" points="4259.8977 3233.3936 4259.8977 3231.4251 4263.4409 3231.4251 4263.4409 3233.3936" layerid="1" stroke-width="0" /><circle c_etype="pad_hole" cx="4261.669" cy="3232.4094" r="0" layerid="1" stroke-width="0"/></g><g c_partid="part_pad" c_etype="pinpart" c_origin="4266,3233.59" layerid="1" number="3" net="LED1_3" plated ="Y"  id="gge354" locked="0" c_rotation="270" c_width="1.9685" c_height="1.5748" title="LED1_3" c_shape="RECT" pasteexpansion="0" solderexpansion="0.2"><polygon  c_etype="pad_shell" points="4266.7874 3232.6062 4266.7874 3234.5747 4265.2126 3234.5747 4265.2126 3232.6062" layerid="1" stroke-width="0" /><circle c_etype="pad_hole" cx="4266" cy="3233.5904" r="0" layerid="1" stroke-width="0"/></g><g c_partid="part_pad" c_etype="pinpart" c_origin="4245.532,3090.059" layerid="1" number="1" net="U1_1" plated ="Y"  id="gge450" locked="0" c_rotation="90" c_width="1.9685" c_height="1.1024" title="U1_1" c_shape="RECT" pasteexpansion="0" solderexpansion="0.2"><polygon  c_etype="pad_shell" points="4244.9809 3091.0435 4244.9809 3089.075 4246.0833 3089.075 4246.0833 3091.0435" layerid="1" stroke-width="0" /><circle c_etype="pad_hole" cx="4245.5316" cy="3090.059" r="0" layerid="1" stroke-width="0"/></g><g c_partid="part_pad" c_etype="pinpart" c_origin="4247.5,3090.059" layerid="1" number="2" net="U1_2" plated ="Y"  id="gge465" locked="0" c_rotation="90" c_width="1.9685" c_height="1.1024" title="U1_2" c_shape="RECT" pasteexpansion="0" solderexpansion="0.2"><polygon  c_etype="pad_shell" points="4246.9489 3091.0435 4246.9489 3089.075 4248.0513 3089.075 4248.0513 3091.0435" layerid="1" stroke-width="0" /><circle c_etype="pad_hole" cx="4247.4996" cy="3090.059" r="0" layerid="1" stroke-width="0"/></g><g c_partid="part_pad" c_etype="pinpart" c_origin="4249.468,3090.059" layerid="1" number="3" net="U1_3" plated ="Y"  id="gge480" locked="0" c_rotation="90" c_width="1.9685" c_height="1.1024" title="U1_3" c_shape="RECT" pasteexpansion="0" solderexpansion="0.2"><polygon  c_etype="pad_shell" points="4248.9169 3091.0435 4248.9169 3089.075 4250.0193 3089.075 4250.0193 3091.0435" layerid="1" stroke-width="0" /><circle c_etype="pad_hole" cx="4249.4686" cy="3090.059" r="0" layerid="1" stroke-width="0"/></g><g c_partid="part_pad" c_etype="pinpart" c_origin="4249.862,3087.5" layerid="1" number="4" net="U1_4" plated ="Y"  id="gge495" locked="0" c_rotation="180" c_width="1.7717" c_height="1.1811" title="U1_4" c_shape="RECT" pasteexpansion="0" solderexpansion="0.2"><polygon  c_etype="pad_shell" points="4250.7479 3088.0908 4248.9763 3088.0908 4248.9763 3086.9097 4250.7479 3086.9097" layerid="1" stroke-width="0" /><circle c_etype="pad_hole" cx="4249.8624" cy="3087.5" r="0" layerid="1" stroke-width="0"/></g><g c_partid="part_pad" c_etype="pinpart" c_origin="4249.469,3084.941" layerid="1" number="5" net="U1_5" plated ="Y"  id="gge510" locked="0" c_rotation="90" c_width="1.9685" c_height="1.1024" title="U1_5" c_shape="RECT" pasteexpansion="0" solderexpansion="0.2"><polygon  c_etype="pad_shell" points="4248.9179 3085.9255 4248.9179 3083.957 4250.0203 3083.957 4250.0203 3085.9255" layerid="1" stroke-width="0" /><circle c_etype="pad_hole" cx="4249.4686" cy="3084.941" r="0" layerid="1" stroke-width="0"/></g><g c_partid="part_pad" c_etype="pinpart" c_origin="4247.5,3084.941" layerid="1" number="6" net="U1_7" plated ="Y"  id="gge525" locked="0" c_rotation="90" c_width="1.9685" c_height="1.1024" title="U1_7" c_shape="RECT" pasteexpansion="0" solderexpansion="0.2"><polygon  c_etype="pad_shell" points="4246.9489 3085.9255 4246.9489 3083.957 4248.0513 3083.957 4248.0513 3085.9255" layerid="1" stroke-width="0" /><circle c_etype="pad_hole" cx="4247.5006" cy="3084.941" r="0" layerid="1" stroke-width="0"/></g><g c_partid="part_pad" c_etype="pinpart" c_origin="4245.532,3084.941" layerid="1" number="7" net="U1_7" plated ="Y"  id="gge540" locked="0" c_rotation="90" c_width="1.9685" c_height="1.1024" title="U1_7" c_shape="RECT" pasteexpansion="0" solderexpansion="0.2"><polygon  c_etype="pad_shell" points="4244.9809 3085.9255 4244.9809 3083.957 4246.0833 3083.957 4246.0833 3085.9255" layerid="1" stroke-width="0" /><circle c_etype="pad_hole" cx="4245.5316" cy="3084.941" r="0" layerid="1" stroke-width="0"/></g><g c_partid="part_pad" c_etype="pinpart" c_origin="4245.138,3087.5" layerid="1" number="8" net="U1_8" plated ="Y"  id="gge555" locked="0" c_rotation="180" c_width="1.7717" c_height="1.1811" title="U1_8" c_shape="RECT" pasteexpansion="0" solderexpansion="0.2"><polygon  c_etype="pad_shell" points="4246.0239 3088.0908 4244.2523 3088.0908 4244.2523 3086.9097 4246.0239 3086.9097" layerid="1" stroke-width="0" /><circle c_etype="pad_hole" cx="4245.1378" cy="3087.5" r="0" layerid="1" stroke-width="0"/></g><g c_partid="part_pad" c_etype="pinpart" c_origin="4247.5,3087.5" layerid="1" number="9" net="U1_9" plated ="Y"  id="gge570" locked="0" c_rotation="180" c_width="1.1811" c_height="1.1811" title="U1_9" c_shape="RECT" pasteexpansion="0" solderexpansion="0.2"><polygon  c_etype="pad_shell" points="4248.0902 3088.0906 4246.909 3088.0906 4246.909 3086.9095 4248.0902 3086.9095" layerid="1" stroke-width="0" /><circle c_etype="pad_hole" cx="4247.5006" cy="3087.5" r="0" layerid="1" stroke-width="0"/></g><path d="M 4292.736 3064.642 A 1.181 1.181 0 0 1 4293.917 3063.461" locked="0"  fill="none" stroke-width="1.181" c_helper_type="arc2" net="" layerid="1" id="gge66" /><path d="M 4290.374 3064.642 A 3.543 3.543 0 0 1 4293.917 3061.099" locked="0"  fill="none" stroke-width="1.181" c_helper_type="arc2" net="" layerid="1" id="gge69" /><path d="M 4288.012 3064.642 A 5.905 5.905 0 0 1 4293.917 3058.736" locked="0"  fill="none" stroke-width="1.181" c_helper_type="arc2" net="" layerid="1" id="gge72" /><path d="M 4285.65 3064.642 A 8.268 8.268 0 0 1 4293.917 3056.374" locked="0"  fill="none" stroke-width="1.181" c_helper_type="arc2" net="" layerid="1" id="gge75" /><path d="M 4283.287 3064.642 A 10.63 10.63 0 0 1 4293.917 3054.012" locked="0"  fill="none" stroke-width="1.181" c_helper_type="arc2" net="" layerid="1" id="gge78" /><path d="M 4292.736 3232.358 A 1.181 1.181 0 0 0 4293.917 3233.539" locked="0"  fill="none" stroke-width="1.181" c_helper_type="arc2" net="" layerid="1" id="gge81" /><path d="M 4290.374 3232.358 A 3.543 3.543 0 0 0 4293.917 3235.901" locked="0"  fill="none" stroke-width="1.181" c_helper_type="arc2" net="" layerid="1" id="gge84" /><path d="M 4288.012 3232.358 A 5.905 5.905 0 0 0 4293.917 3238.264" locked="0"  fill="none" stroke-width="1.181" c_helper_type="arc2" net="" layerid="1" id="gge87" /><path d="M 4285.65 3232.358 A 8.268 8.268 0 0 0 4293.917 3240.626" locked="0"  fill="none" stroke-width="1.181" c_helper_type="arc2" net="" layerid="1" id="gge90" /><path d="M 4283.287 3232.358 A 10.63 10.63 0 0 0 4293.917 3242.988" locked="0"  fill="none" stroke-width="1.181" c_helper_type="arc2" net="" layerid="1" id="gge93" /><path d="M 4372.264 3232.358 A 1.181 1.181 0 0 1 4371.083 3233.539" locked="0"  fill="none" stroke-width="1.181" c_helper_type="arc2" net="" layerid="1" id="gge96" /><path d="M 4374.626 3232.358 A 3.543 3.543 0 0 1 4371.083 3235.901" locked="0"  fill="none" stroke-width="1.181" c_helper_type="arc2" net="" layerid="1" id="gge99" /><path d="M 4376.988 3232.358 A 5.905 5.905 0 0 1 4371.083 3238.264" locked="0"  fill="none" stroke-width="1.181" c_helper_type="arc2" net="" layerid="1" id="gge102" /><path d="M 4379.35 3232.358 A 8.268 8.268 0 0 1 4371.083 3240.626" locked="0"  fill="none" stroke-width="1.181" c_helper_type="arc2" net="" layerid="1" id="gge105" /><path d="M 4381.713 3232.358 A 10.63 10.63 0 0 1 4371.083 3242.988" locked="0"  fill="none" stroke-width="1.181" c_helper_type="arc2" net="" layerid="1" id="gge108" /><path d="M 4372.264 3064.642 A 1.181 1.181 0 0 0 4371.083 3063.461" locked="0"  fill="none" stroke-width="1.181" c_helper_type="arc2" net="" layerid="1" id="gge111" /><path d="M 4374.626 3064.642 A 3.543 3.543 0 0 0 4371.083 3061.099" locked="0"  fill="none" stroke-width="1.181" c_helper_type="arc2" net="" layerid="1" id="gge114" /><path d="M 4376.988 3064.642 A 5.905 5.905 0 0 0 4371.083 3058.736" locked="0"  fill="none" stroke-width="1.181" c_helper_type="arc2" net="" layerid="1" id="gge117" /><path d="M 4379.35 3064.642 A 8.268 8.268 0 0 0 4371.083 3056.374" locked="0"  fill="none" stroke-width="1.181" c_helper_type="arc2" net="" layerid="1" id="gge120" /><path d="M 4381.713 3064.642 A 10.63 10.63 0 0 0 4371.083 3054.012" locked="0"  fill="none" stroke-width="1.181" c_helper_type="arc2" net="" layerid="1" id="gge123" /><path d="M 4159.0946 3102.6929 C 4144.4844 3102.6929 4131.3121 3108.929 4125.261 3118.4487 C 4118.9184 3118.6455 4113.819 3123.8622 4113.819 3130.252 C 4113.819 3133.7914 4115.4214 3138.2101 4117.756 3141.3479 L 4117.756 3189.3071 L 4125.63 3189.3071 L 4125.63 3138.3951 L 4124.5766 3137.2648 C 4122.8758 3135.4262 4121.693 3132.0985 4121.693 3130.252 C 4121.693 3128.0788 4123.4568 3126.315 4125.63 3126.315 C 4125.886 3126.315 4126.187 3126.3593 4126.5374 3126.438 L 4129.6209 3127.1762 L 4130.9896 3124.308 C 4134.8715 3116.2175 4146.4293 3110.567 4159.0946 3110.567 L 4170.9056 3110.567 C 4183.571 3110.567 4195.1288 3116.2175 4199.0106 3124.308 L 4200.3794 3127.1762 L 4203.4628 3126.438 C 4203.8132 3126.3593 4204.1143 3126.315 4204.3702 3126.315 C 4206.5434 3126.315 4208.3072 3128.0788 4208.3072 3130.252 C 4208.3072 3132.0985 4207.1244 3135.4262 4205.4237 3137.2648 L 4204.3702 3138.3951 L 4204.3702 3189.3071 L 4212.2442 3189.3071 L 4212.2442 3141.3479 C 4214.5789 3138.2101 4216.1812 3133.7914 4216.1812 3130.252 C 4216.1812 3123.8622 4211.0818 3118.6455 4204.7393 3118.4487 C 4198.6881 3108.929 4185.5159 3102.6929 4170.9056 3102.6929 L 4159.0946 3102.6929 L 4159.0946 3102.6929 M 4141.3781 3130.252 L 4140.5846 3130.372 L 4139.8456 3130.7161 L 4139.1769 3131.2606 L 4138.5942 3131.9817 L 4138.1134 3132.8557 L 4137.7505 3133.8588 L 4137.5211 3134.9673 L 4137.4411 3136.1575 L 4137.5211 3137.3477 L 4137.7505 3138.4562 L 4138.1134 3139.4593 L 4138.5942 3140.3333 L 4139.1769 3141.0544 L 4139.8456 3141.5989 L 4140.5846 3141.943 L 4141.3781 3142.063 L 4142.1715 3141.943 L 4142.9105 3141.5989 L 4143.5793 3141.0544 L 4144.162 3140.3333 L 4144.6427 3139.4593 L 4145.0057 3138.4562 L 4145.2351 3137.3477 L 4145.3151 3136.1575 L 4145.2351 3134.9673 L 4145.0057 3133.8588 L 4144.6427 3132.8557 L 4144.162 3131.9817 L 4143.5793 3131.2606 L 4142.9105 3130.7161 L 4142.1715 3130.372 L 4141.3781 3130.252 L 4141.3781 3130.252 M 4188.6222 3130.252 L 4187.8287 3130.372 L 4187.0897 3130.7161 L 4186.421 3131.2606 L 4185.8383 3131.9817 L 4185.3575 3132.8557 L 4184.9946 3133.8588 L 4184.7652 3134.9673 L 4184.6852 3136.1575 L 4184.7652 3137.3477 L 4184.9946 3138.4562 L 4185.3575 3139.4593 L 4185.8383 3140.3333 L 4186.421 3141.0544 L 4187.0897 3141.5989 L 4187.8287 3141.943 L 4188.6222 3142.063 L 4189.4156 3141.943 L 4190.1546 3141.5989 L 4190.8234 3141.0544 L 4191.4061 3140.3333 L 4191.8868 3139.4593 L 4192.2498 3138.4562 L 4192.4792 3137.3477 L 4192.5592 3136.1575 L 4192.4792 3134.9673 L 4192.2498 3133.8588 L 4191.8868 3132.8557 L 4191.4061 3131.9817 L 4190.8234 3131.2606 L 4190.1546 3130.7161 L 4189.4156 3130.372 L 4188.6222 3130.252 L 4188.6222 3130.252 M 4165.0001 3134.2582 C 4161.3978 3134.2582 4157.7958 3135.5308 4154.6501 3138.0722 C 4140.6462 3149.4029 4140.3166 3149.6834 4139.3481 3150.4984 L 4138.9251 3150.8521 C 4135.4291 3153.7773 4133.5041 3157.6496 4133.5041 3161.7481 C 4133.5041 3170.4331 4140.5671 3177.4961 4149.2521 3177.4961 C 4155.1497 3177.4961 4160.7245 3176.0754 4165.0001 3173.536 C 4169.2757 3176.0754 4174.8505 3177.4961 4180.7482 3177.4961 C 4189.4332 3177.4961 4196.4962 3170.4331 4196.4962 3161.7481 C 4196.4962 3157.6496 4194.5712 3153.7812 4191.0751 3150.8521 L 4190.6522 3150.4984 C 4189.6837 3149.6834 4189.358 3149.3991 4175.3501 3138.0645 C 4172.2084 3135.5271 4168.6025 3134.2582 4165.0001 3134.2582 L 4165.0001 3134.2582 M 4165.0001 3142.0784 C 4166.8244 3142.0784 4168.6481 3142.7816 4170.3981 3144.193 C 4184.284 3155.4292 4184.6205 3155.7121 4185.5771 3156.5192 L 4186.0231 3156.896 C 4187.2082 3157.8881 4188.6222 3159.5315 4188.6222 3161.7481 C 4188.6222 3166.0906 4185.0907 3169.6221 4180.7482 3169.6221 C 4175.4765 3169.6221 4170.5155 3168.1609 4167.4761 3165.7081 L 4165.1308 3163.8165 C 4165.4247 3160.3949 4166.5207 3157.811 4168.9371 3157.811 C 4173.2875 3157.811 4176.8111 3157.0175 4176.8111 3154.9506 C 4176.8111 3152.1789 4171.5237 3149.937 4165.0001 3149.937 C 4158.4765 3149.937 4153.1891 3152.1789 4153.1891 3154.9506 C 4153.1891 3157.0175 4156.7127 3157.811 4161.0631 3157.811 C 4163.4795 3157.811 4164.5756 3160.3949 4164.8694 3163.8165 L 4162.5241 3165.7081 C 4159.4847 3168.1609 4154.5237 3169.6221 4149.2521 3169.6221 C 4144.9096 3169.6221 4141.3781 3166.0906 4141.3781 3161.7481 C 4141.3781 3159.5355 4142.7919 3157.8881 4143.9848 3156.896 L 4144.4308 3156.5192 C 4145.3914 3155.7121 4145.7202 3155.433 4159.6021 3144.2007 C 4161.3541 3142.7853 4163.1758 3142.0784 4165.0001 3142.0784 L 4165.0001 3142.0784" layerid="1" stroke="none" c_shapetype="line" id="gge1104"></path><g c_partid="part_pad" c_etype="pinpart" c_origin="4295,3146" layerid="11" number="P$2" net="U1_8" plated ="Y"  id="gge159" locked="0" c_rotation="90" c_width="3.181" c_height="3.181" title="U1_8" c_shape="ELLIPSE" pasteexpansion="0" solderexpansion="0.2"><ellipse c_etype="pad_shell" cx="4295" cy="3146" rx="1.5905" ry="1.5905" layerid="11" stroke-width="0"/><polyline c_etype="pad_hole" points="4295 3145.9995 4295 3146.0005" layerid="11" stroke-width="1.182"></polyline></g><g c_partid="part_pad" c_etype="pinpart" c_origin="4180.5,3126.028" layerid="11" number="1" net="U1_2" plated ="Y"  id="gge234" locked="0" c_rotation="90" c_width="7.874" c_height="7.874" title="U1_2" c_shape="ELLIPSE" pasteexpansion="0" solderexpansion="0.2"><ellipse c_etype="pad_shell" cx="4180.5" cy="3126.028" rx="3.937" ry="3.937" layerid="11" stroke-width="0"/><circle c_etype="pad_hole" cx="4180.5" cy="3126.0273" r="2.362" layerid="11" stroke-width="0"/></g><g c_partid="part_pad" c_etype="pinpart" c_origin="4180.5,3066.972" layerid="11" number="2" net="U1_7" plated ="Y"  id="gge249" locked="0" c_rotation="90" c_width="7.874" c_height="7.874" title="U1_7" c_shape="ELLIPSE" pasteexpansion="0" solderexpansion="0.2"><ellipse c_etype="pad_shell" cx="4180.5" cy="3066.972" rx="3.937" ry="3.937" layerid="11" stroke-width="0"/><circle c_etype="pad_hole" cx="4180.5" cy="3066.9727" r="2.362" layerid="11" stroke-width="0"/></g><g c_partid="part_pad" c_etype="pinpart" c_origin="4155.5,3226.386" layerid="11" number="1" net="U2_1" plated ="Y"  id="gge627" locked="0" c_rotation="90" c_width="9.0551" c_height="9.0551" title="U2_1" c_shape="ELLIPSE" pasteexpansion="0" solderexpansion="0.2"><ellipse c_etype="pad_shell" cx="4155.5" cy="3226.386" rx="4.52755" ry="4.52755" layerid="11" stroke-width="0"/><circle c_etype="pad_hole" cx="4155.5" cy="3226.3858" r="2.3622" layerid="11" stroke-width="0"/></g><g c_partid="part_pad" c_etype="pinpart" c_origin="4155.5,3149.614" layerid="11" number="2" net="U1_7" plated ="Y"  id="gge642" locked="0" c_rotation="90" c_width="9.0551" c_height="9.0551" title="U1_7" c_shape="ELLIPSE" pasteexpansion="0" solderexpansion="0.2"><ellipse c_etype="pad_shell" cx="4155.5" cy="3149.614" rx="4.52755" ry="4.52755" layerid="11" stroke-width="0"/><circle c_etype="pad_hole" cx="4155.5" cy="3149.6142" r="2.3622" layerid="11" stroke-width="0"/></g><g c_partid="part_via" c_etype="pinpart" c_shapetype="group" net="U1_8" c_origin="4242.414,3087.5" layerid="11" id="gge1038" locked="0" solderexpansion=""><circle cx="4242.414" cy="3087.5" r="1.2" stroke-width="0" c_etype="pad_shell"/><circle cx="4242.414" cy="3087.5" r="0.6"  stroke-width="0" c_etype="pad_hole"/></g><polyline points="4190.3425 3091.2247 4170.6575 3091.2247" stroke-width="1"  stroke-linecap="round" fill="none" layerid="3" net="" id="gge204" locked="0" /><polyline points="4180.5243 3091.2247 4180.5243 3073.7052" stroke-width="1"  stroke-linecap="round" fill="none" layerid="3" net="" id="gge207" locked="0" /><polyline points="4180.4757 3101.7756 4180.4757 3119.2952" stroke-width="1"  stroke-linecap="round" fill="none" layerid="3" net="" id="gge210" locked="0" /><polyline points="4170.6575 3101.7756 4190.3425 3101.7756" stroke-width="1"  stroke-linecap="round" fill="none" layerid="3" net="" id="gge213" locked="0" /><polyline points="4160.815 3131.9331 4160.815 3061.0669" stroke-width="1"  stroke-linecap="round" fill="none" layerid="3" net="" id="gge216" locked="0" /><polyline points="4200.185 3131.9331 4200.185 3061.0669" stroke-width="1"  stroke-linecap="round" fill="none" layerid="3" net="" id="gge219" locked="0" /><polyline points="4160.815 3131.9331 4200.1063 3131.9331" stroke-width="1"  stroke-linecap="round" fill="none" layerid="3" net="" id="gge222" locked="0" /><polyline points="4160.815 3061.0669 4200.185 3061.0669" stroke-width="1"  stroke-linecap="round" fill="none" layerid="3" net="" id="gge225" locked="0" /><polyline points="4266.3937 3231.2229 4265.0158 3231.2229" stroke-width="0.7874"  stroke-linecap="round" fill="none" layerid="3" net="" id="gge309" locked="0" /><polyline points="4266.3937 3230.441 4266.3937 3232.0158" stroke-width="0.7874"  stroke-linecap="round" fill="none" layerid="3" net="" id="gge312" locked="0" /><polyline points="4263 3230.5 4263 3228.5 4269 3228.5 4269 3230.5" stroke-width="1"  stroke-linecap="round" fill="none" layerid="3" net="" id="gge315" locked="0" /><polyline points="4250.8785 3083.5629 4251.4371 3083.5629" stroke-width="1"  stroke-linecap="round" fill="none" layerid="3" net="" id="gge423" locked="0" /><polyline points="4243.563 3086.2201 4243.563 3083.5629 4244.1219 3083.5629" stroke-width="1"  stroke-linecap="round" fill="none" layerid="3" net="" id="gge426" locked="0" /><polyline points="4244.1219 3091.4369 4243.563 3091.4369 4243.563 3088.7792" stroke-width="1"  stroke-linecap="round" fill="none" layerid="3" net="" id="gge429" locked="0" /><polyline points="4251.4371 3091.4369 4250.8785 3091.4369" stroke-width="1"  stroke-linecap="round" fill="none" layerid="3" net="" id="gge432" locked="0" /><polyline points="4251.4371 3088.7792 4251.4371 3091.4369" stroke-width="1"  stroke-linecap="round" fill="none" layerid="3" net="" id="gge435" locked="0" /><polyline points="4251.4371 3083.5629 4251.4371 3086.2201" stroke-width="1"  stroke-linecap="round" fill="none" layerid="3" net="" id="gge438" locked="0" /><polyline points="4145.6575 3218.5117 4145.6575 3157.49 4165.3425 3157.49" stroke-width="1"  stroke-linecap="round" fill="none" layerid="3" net="" id="gge612" locked="0" /><polyline points="4145.6575 3218.5117 4165.3425 3218.5118" stroke-width="1"  stroke-linecap="round" fill="none" layerid="3" net="" id="gge615" locked="0" /><polyline points="4165.3425 3218.5118 4165.3425 3157.49" stroke-width="1"  stroke-linecap="round" fill="none" layerid="3" net="" id="gge618" locked="0" /><g c_partid="part_pcbtext" c_etype="" c_origin="4270.5,3148.5" c_rotation="90" c_mirror="0" id="gge9" locked="0" layerid="3" c_shapetype="group" display="none"><path c_fontsize="4.5" c_fontfamily="" c_text="25X48MM_NFC_ANTENNA" d="M 4266.98 3148.3 L 4266.78 3148.3 L 4266.37 3148.09 L 4266.16 3147.89 L 4265.96 3147.48 L 4265.96 3146.66 L 4266.16 3146.25 L 4266.37 3146.05 L 4266.78 3145.84 L 4267.19 3145.84 L 4267.6 3146.05 L 4268.21 3146.45 L 4270.25 3148.5 L 4270.25 3145.64 M 4265.96 3141.83 L 4265.96 3143.88 L 4267.8 3144.08 L 4267.6 3143.88 L 4267.39 3143.26 L 4267.39 3142.65 L 4267.6 3142.04 L 4268 3141.63 L 4268.62 3141.42 L 4269.03 3141.42 L 4269.64 3141.63 L 4270.05 3142.04 L 4270.25 3142.65 L 4270.25 3143.26 L 4270.05 3143.88 L 4269.85 3144.08 L 4269.44 3144.29 M 4265.96 3140.07 L 4270.25 3137.21 M 4265.96 3137.21 L 4270.25 3140.07 M 4265.96 3133.81 L 4268.82 3135.86 L 4268.82 3132.79 M 4265.96 3133.81 L 4270.25 3133.81 M 4265.96 3130.42 L 4266.16 3131.03 L 4266.57 3131.24 L 4266.98 3131.24 L 4267.39 3131.03 L 4267.6 3130.62 L 4267.8 3129.8 L 4268 3129.19 L 4268.41 3128.78 L 4268.82 3128.58 L 4269.44 3128.58 L 4269.85 3128.78 L 4270.05 3128.99 L 4270.25 3129.6 L 4270.25 3130.42 L 4270.05 3131.03 L 4269.85 3131.24 L 4269.44 3131.44 L 4268.82 3131.44 L 4268.41 3131.24 L 4268 3130.83 L 4267.8 3130.21 L 4267.6 3129.4 L 4267.39 3128.99 L 4266.98 3128.78 L 4266.57 3128.78 L 4266.16 3128.99 L 4265.96 3129.6 L 4265.96 3130.42 M 4265.96 3127.23 L 4270.25 3127.23 M 4265.96 3127.23 L 4270.25 3125.59 M 4265.96 3123.95 L 4270.25 3125.59 M 4265.96 3123.95 L 4270.25 3123.95 M 4265.96 3122.6 L 4270.25 3122.6 M 4265.96 3122.6 L 4270.25 3120.97 M 4265.96 3119.33 L 4270.25 3120.97 M 4265.96 3119.33 L 4270.25 3119.33 M 4271.69 3117.98 L 4271.69 3114.3 M 4265.96 3112.95 L 4270.25 3112.95 M 4265.96 3112.95 L 4270.25 3110.09 M 4265.96 3110.09 L 4270.25 3110.09 M 4265.96 3108.74 L 4270.25 3108.74 M 4265.96 3108.74 L 4265.96 3106.08 M 4268 3108.74 L 4268 3107.1 M 4266.98 3101.66 L 4266.57 3101.86 L 4266.16 3102.27 L 4265.96 3102.68 L 4265.96 3103.5 L 4266.16 3103.91 L 4266.57 3104.32 L 4266.98 3104.52 L 4267.6 3104.73 L 4268.62 3104.73 L 4269.23 3104.52 L 4269.64 3104.32 L 4270.05 3103.91 L 4270.25 3103.5 L 4270.25 3102.68 L 4270.05 3102.27 L 4269.64 3101.86 L 4269.23 3101.66 M 4271.69 3100.31 L 4271.69 3096.63 M 4265.96 3093.64 L 4270.25 3095.28 M 4265.96 3093.64 L 4270.25 3092 M 4268.82 3094.66 L 4268.82 3092.62 M 4265.96 3090.65 L 4270.25 3090.65 M 4265.96 3090.65 L 4270.25 3087.79 M 4265.96 3087.79 L 4270.25 3087.79 M 4265.96 3085.01 L 4270.25 3085.01 M 4265.96 3086.44 L 4265.96 3083.58 M 4265.96 3082.23 L 4270.25 3082.23 M 4265.96 3082.23 L 4265.96 3079.57 M 4268 3082.23 L 4268 3080.59 M 4270.25 3082.23 L 4270.25 3079.57 M 4265.96 3078.22 L 4270.25 3078.22 M 4265.96 3078.22 L 4270.25 3075.35 M 4265.96 3075.35 L 4270.25 3075.35 M 4265.96 3074 L 4270.25 3074 M 4265.96 3074 L 4270.25 3071.14 M 4265.96 3071.14 L 4270.25 3071.14 M 4265.96 3068.15 L 4270.25 3069.79 M 4265.96 3068.15 L 4270.25 3066.52 M 4268.82 3069.18 L 4268.82 3067.13" fill="none"  stroke-width="0.6" c_note="note_name" /></g><g c_partid="part_pcbtext" c_etype="" c_origin="4277.5,3148.5" c_rotation="90" c_mirror="0" id="gge15" locked="0" layerid="3" c_shapetype="group" ><path c_fontsize="4.5" c_fontfamily="" c_text="1" d="M 4273.78 3148.5 L 4273.57 3148.09 L 4272.96 3147.48 L 4277.25 3147.48" fill="none"  stroke-width="0.6" c_note="note_pre" /></g><g c_partid="part_pcbtext" c_etype="" c_origin="4152.5,3097.5" c_rotation="90" c_mirror="0" id="gge180" locked="0" layerid="3" c_shapetype="group" display="none"><path c_fontsize="4.5" c_fontfamily="" c_text="220nF" d="M 4148.98 3097.3 L 4148.78 3097.3 L 4148.37 3097.09 L 4148.16 3096.89 L 4147.96 3096.48 L 4147.96 3095.66 L 4148.16 3095.25 L 4148.37 3095.05 L 4148.78 3094.84 L 4149.19 3094.84 L 4149.6 3095.05 L 4150.21 3095.45 L 4152.25 3097.5 L 4152.25 3094.64 M 4148.98 3093.08 L 4148.78 3093.08 L 4148.37 3092.88 L 4148.16 3092.67 L 4147.96 3092.26 L 4147.96 3091.45 L 4148.16 3091.04 L 4148.37 3090.83 L 4148.78 3090.63 L 4149.19 3090.63 L 4149.6 3090.83 L 4150.21 3091.24 L 4152.25 3093.29 L 4152.25 3090.42 M 4147.96 3087.85 L 4148.16 3088.46 L 4148.78 3088.87 L 4149.8 3089.07 L 4150.41 3089.07 L 4151.44 3088.87 L 4152.05 3088.46 L 4152.25 3087.85 L 4152.25 3087.44 L 4152.05 3086.82 L 4151.44 3086.41 L 4150.41 3086.21 L 4149.8 3086.21 L 4148.78 3086.41 L 4148.16 3086.82 L 4147.96 3087.44 L 4147.96 3087.85 M 4149.39 3084.86 L 4152.25 3084.86 M 4150.21 3084.86 L 4149.6 3084.25 L 4149.39 3083.84 L 4149.39 3083.22 L 4149.6 3082.81 L 4150.21 3082.61 L 4152.25 3082.61 M 4147.96 3081.26 L 4152.25 3081.26 M 4147.96 3081.26 L 4147.96 3078.6 M 4150 3081.26 L 4150 3079.62" fill="none"  stroke-width="0.6" c_note="note_name" /></g><g c_partid="part_pcbtext" c_etype="" c_origin="4159.5,3097.5" c_rotation="90" c_mirror="0" id="gge186" locked="0" layerid="3" c_shapetype="group" ><path c_fontsize="4.5" c_fontfamily="" c_text="C1" d="M 4155.98 3094.43 L 4155.57 3094.64 L 4155.16 3095.05 L 4154.96 3095.45 L 4154.96 3096.27 L 4155.16 3096.68 L 4155.57 3097.09 L 4155.98 3097.3 L 4156.6 3097.5 L 4157.62 3097.5 L 4158.23 3097.3 L 4158.64 3097.09 L 4159.05 3096.68 L 4159.25 3096.27 L 4159.25 3095.45 L 4159.05 3095.05 L 4158.64 3094.64 L 4158.23 3094.43 M 4155.78 3093.08 L 4155.57 3092.67 L 4154.96 3092.06 L 4159.25 3092.06" fill="none"  stroke-width="0.6" c_note="note_pre" /></g><g c_partid="part_pcbtext" c_etype="" c_origin="4266,3220.409" c_rotation="0" c_mirror="0" id="gge270" locked="0" layerid="3" c_shapetype="group" display="none"><path c_fontsize="4.5" c_fontfamily="" c_text="BL-HUB34E-AV-TRB" d="M 4266 3215.8694 L 4266 3220.1594 M 4266 3215.8694 L 4267.84 3215.8694 L 4268.45 3216.0694 L 4268.66 3216.2794 L 4268.86 3216.6894 L 4268.86 3217.0994 L 4268.66 3217.5094 L 4268.45 3217.7094 L 4267.84 3217.9094 M 4266 3217.9094 L 4267.84 3217.9094 L 4268.45 3218.1194 L 4268.66 3218.3194 L 4268.86 3218.7294 L 4268.86 3219.3494 L 4268.66 3219.7594 L 4268.45 3219.9594 L 4267.84 3220.1594 L 4266 3220.1594 M 4270.21 3215.8694 L 4270.21 3220.1594 M 4270.21 3220.1594 L 4272.67 3220.1594 M 4274.02 3218.3194 L 4277.7 3218.3194 M 4279.05 3215.8694 L 4279.05 3220.1594 M 4281.91 3215.8694 L 4281.91 3220.1594 M 4279.05 3217.9094 L 4281.91 3217.9094 M 4283.26 3215.8694 L 4283.26 3218.9394 L 4283.47 3219.5494 L 4283.88 3219.9594 L 4284.49 3220.1594 L 4284.9 3220.1594 L 4285.51 3219.9594 L 4285.92 3219.5494 L 4286.13 3218.9394 L 4286.13 3215.8694 M 4287.48 3215.8694 L 4287.48 3220.1594 M 4287.48 3215.8694 L 4289.32 3215.8694 L 4289.93 3216.0694 L 4290.14 3216.2794 L 4290.34 3216.6894 L 4290.34 3217.0994 L 4290.14 3217.5094 L 4289.93 3217.7094 L 4289.32 3217.9094 M 4287.48 3217.9094 L 4289.32 3217.9094 L 4289.93 3218.1194 L 4290.14 3218.3194 L 4290.34 3218.7294 L 4290.34 3219.3494 L 4290.14 3219.7594 L 4289.93 3219.9594 L 4289.32 3220.1594 L 4287.48 3220.1594 M 4292.1 3215.8694 L 4294.35 3215.8694 L 4293.12 3217.5094 L 4293.74 3217.5094 L 4294.15 3217.7094 L 4294.35 3217.9094 L 4294.55 3218.5294 L 4294.55 3218.9394 L 4294.35 3219.5494 L 4293.94 3219.9594 L 4293.33 3220.1594 L 4292.71 3220.1594 L 4292.1 3219.9594 L 4291.9 3219.7594 L 4291.69 3219.3494 M 4297.95 3215.8694 L 4295.9 3218.7294 L 4298.97 3218.7294 M 4297.95 3215.8694 L 4297.95 3220.1594 M 4300.32 3215.8694 L 4300.32 3220.1594 M 4300.32 3215.8694 L 4302.98 3215.8694 M 4300.32 3217.9094 L 4301.96 3217.9094 M 4300.32 3220.1594 L 4302.98 3220.1594 M 4304.33 3218.3194 L 4308.01 3218.3194 M 4311 3215.8694 L 4309.36 3220.1594 M 4311 3215.8694 L 4312.64 3220.1594 M 4309.98 3218.7294 L 4312.02 3218.7294 M 4313.99 3215.8694 L 4315.62 3220.1594 M 4317.26 3215.8694 L 4315.62 3220.1594 M 4318.61 3218.3194 L 4322.29 3218.3194 M 4325.07 3215.8694 L 4325.07 3220.1594 M 4323.64 3215.8694 L 4326.5 3215.8694 M 4327.85 3215.8694 L 4327.85 3220.1594 M 4327.85 3215.8694 L 4329.7 3215.8694 L 4330.31 3216.0694 L 4330.51 3216.2794 L 4330.72 3216.6894 L 4330.72 3217.0994 L 4330.51 3217.5094 L 4330.31 3217.7094 L 4329.7 3217.9094 L 4327.85 3217.9094 M 4329.29 3217.9094 L 4330.72 3220.1594 M 4332.07 3215.8694 L 4332.07 3220.1594 M 4332.07 3215.8694 L 4333.91 3215.8694 L 4334.52 3216.0694 L 4334.73 3216.2794 L 4334.93 3216.6894 L 4334.93 3217.0994 L 4334.73 3217.5094 L 4334.52 3217.7094 L 4333.91 3217.9094 M 4332.07 3217.9094 L 4333.91 3217.9094 L 4334.52 3218.1194 L 4334.73 3218.3194 L 4334.93 3218.7294 L 4334.93 3219.3494 L 4334.73 3219.7594 L 4334.52 3219.9594 L 4333.91 3220.1594 L 4332.07 3220.1594" fill="none"  stroke-width="0.6" c_note="note_name" /></g><g c_partid="part_pcbtext" c_etype="" c_origin="4266,3227.409" c_rotation="0" c_mirror="0" id="gge276" locked="0" layerid="3" c_shapetype="group" ><path c_fontsize="4.5" c_fontfamily="" c_text="LED1" d="M 4266 3222.8694 L 4266 3227.1594 M 4266 3227.1594 L 4268.45 3227.1594 M 4269.8 3222.8694 L 4269.8 3227.1594 M 4269.8 3222.8694 L 4272.46 3222.8694 M 4269.8 3224.9094 L 4271.44 3224.9094 M 4269.8 3227.1594 L 4272.46 3227.1594 M 4273.81 3222.8694 L 4273.81 3227.1594 M 4273.81 3222.8694 L 4275.25 3222.8694 L 4275.86 3223.0694 L 4276.27 3223.4794 L 4276.47 3223.8894 L 4276.68 3224.5094 L 4276.68 3225.5294 L 4276.47 3226.1394 L 4276.27 3226.5494 L 4275.86 3226.9594 L 4275.25 3227.1594 L 4273.81 3227.1594 M 4278.03 3223.6894 L 4278.44 3223.4794 L 4279.05 3222.8694 L 4279.05 3227.1594" fill="none"  stroke-width="0.6" c_note="note_pre" /></g><g c_partid="part_pcbtext" c_etype="" c_origin="4246.844,3074.794" c_rotation="0" c_mirror="0" id="gge375" locked="0" layerid="3" c_shapetype="group" display="none"><path c_fontsize="4.5" c_fontfamily="" c_text="NT3H2111W0FHKH" d="M 4246.8441 3070.2542 L 4246.8441 3074.5442 M 4246.8441 3070.2542 L 4249.7041 3074.5442 M 4249.7041 3070.2542 L 4249.7041 3074.5442 M 4252.4941 3070.2542 L 4252.4941 3074.5442 M 4251.0541 3070.2542 L 4253.9241 3070.2542 M 4255.6841 3070.2542 L 4257.9341 3070.2542 L 4256.7041 3071.8942 L 4257.3141 3071.8942 L 4257.7241 3072.0942 L 4257.9341 3072.2942 L 4258.1341 3072.9142 L 4258.1341 3073.3242 L 4257.9341 3073.9342 L 4257.5241 3074.3442 L 4256.9041 3074.5442 L 4256.2941 3074.5442 L 4255.6841 3074.3442 L 4255.4741 3074.1442 L 4255.2741 3073.7342 M 4259.4841 3070.2542 L 4259.4841 3074.5442 M 4262.3441 3070.2542 L 4262.3441 3074.5442 M 4259.4841 3072.2942 L 4262.3441 3072.2942 M 4263.9041 3071.2742 L 4263.9041 3071.0742 L 4264.1041 3070.6642 L 4264.3141 3070.4542 L 4264.7241 3070.2542 L 4265.5441 3070.2542 L 4265.9441 3070.4542 L 4266.1541 3070.6642 L 4266.3541 3071.0742 L 4266.3541 3071.4842 L 4266.1541 3071.8942 L 4265.7441 3072.5042 L 4263.6941 3074.5442 L 4266.5641 3074.5442 M 4267.9141 3071.0742 L 4268.3241 3070.8642 L 4268.9341 3070.2542 L 4268.9341 3074.5442 M 4270.2841 3071.0742 L 4270.6941 3070.8642 L 4271.3041 3070.2542 L 4271.3041 3074.5442 M 4272.6541 3071.0742 L 4273.0641 3070.8642 L 4273.6841 3070.2542 L 4273.6841 3074.5442 M 4275.0341 3070.2542 L 4276.0541 3074.5442 M 4277.0741 3070.2542 L 4276.0541 3074.5442 M 4277.0741 3070.2542 L 4278.0941 3074.5442 M 4279.1241 3070.2542 L 4278.0941 3074.5442 M 4281.6941 3070.2542 L 4281.0841 3070.4542 L 4280.6741 3071.0742 L 4280.4741 3072.0942 L 4280.4741 3072.7042 L 4280.6741 3073.7342 L 4281.0841 3074.3442 L 4281.6941 3074.5442 L 4282.1041 3074.5442 L 4282.7241 3074.3442 L 4283.1341 3073.7342 L 4283.3341 3072.7042 L 4283.3341 3072.0942 L 4283.1341 3071.0742 L 4282.7241 3070.4542 L 4282.1041 3070.2542 L 4281.6941 3070.2542 M 4284.6841 3070.2542 L 4284.6841 3074.5442 M 4284.6841 3070.2542 L 4287.3441 3070.2542 M 4284.6841 3072.2942 L 4286.3241 3072.2942 M 4288.6941 3070.2542 L 4288.6941 3074.5442 M 4291.5541 3070.2542 L 4291.5541 3074.5442 M 4288.6941 3072.2942 L 4291.5541 3072.2942 M 4292.9041 3070.2542 L 4292.9041 3074.5442 M 4295.7741 3070.2542 L 4292.9041 3073.1142 M 4293.9341 3072.0942 L 4295.7741 3074.5442 M 4297.1241 3070.2542 L 4297.1241 3074.5442 M 4299.9841 3070.2542 L 4299.9841 3074.5442 M 4297.1241 3072.2942 L 4299.9841 3072.2942" fill="none"  stroke-width="0.6" c_note="note_name" /></g><g c_partid="part_pcbtext" c_etype="" c_origin="4189,3099.5" c_rotation="0" c_mirror="0" id="gge381" locked="0" layerid="3" c_shapetype="group" ><path c_fontsize="4.5" c_fontfamily="" c_text="U1" d="M 4189 3094.96 L 4189 3098.03 L 4189.2 3098.64 L 4189.61 3099.05 L 4190.23 3099.25 L 4190.64 3099.25 L 4191.25 3099.05 L 4191.66 3098.64 L 4191.86 3098.03 L 4191.86 3094.96 M 4193.21 3095.78 L 4193.62 3095.57 L 4194.24 3094.96 L 4194.24 3099.25" fill="none"  stroke-width="0.6" c_note="note_pre" /></g><g c_partid="part_pcbtext" c_etype="" c_origin="4131.96,3188.114" c_rotation="90" c_mirror="0" id="gge684" locked="0" layerid="3" c_shapetype="group" display="none"><path c_fontsize="4.5" c_fontfamily="NotoSerifCJKsc-Medium" c_text="47Ω" d="M 4130.79 3187.7735 L 4129.4 3186.8035 L 4130.79 3186.8035 Z  M 4130.79 3185.9935 L 4130.79 3186.4535 L 4128.98 3186.4535 L 4128.98 3186.6935 L 4130.84 3187.9935 L 4131.05 3187.9935 L 4131.05 3186.8035 L 4131.96 3186.8035 L 4131.96 3186.4535 L 4131.05 3186.4535 L 4131.05 3185.9935 Z  M 4129.03 3185.6935 L 4129.37 3185.6935 L 4129.37 3184.1635 L 4131.92 3185.3335 L 4131.96 3185.2935 L 4131.96 3184.9535 L 4129.24 3183.9135 L 4129.03 3183.9135 Z  M 4131.22 3180.9235 L 4131.65 3181.0235 L 4131.65 3181.6435 L 4131.65 3181.6435 C 4131.33 3181.1935 4130.86 3180.8335 4130.29 3180.8335 C 4129.43 3180.8335 4128.96 3181.4435 4128.96 3182.1135 C 4128.96 3182.8035 4129.43 3183.4035 4130.29 3183.4035 C 4130.86 3183.4035 4131.33 3183.0435 4131.65 3182.5935 L 4131.65 3182.5935 L 4131.65 3183.2135 L 4131.22 3183.3135 L 4131.22 3183.5435 L 4131.96 3183.5035 L 4131.96 3182.3335 L 4131.69 3182.3335 C 4131.36 3182.7335 4130.84 3182.9935 4130.29 3182.9935 C 4129.64 3182.9935 4129.15 3182.6735 4129.15 3182.1135 C 4129.15 3181.5735 4129.64 3181.2435 4130.29 3181.2435 C 4130.84 3181.2435 4131.36 3181.5035 4131.69 3181.9135 L 4131.96 3181.9135 L 4131.96 3180.7335 L 4131.22 3180.6935 Z "  stroke="none" stroke-width="0.6" c_note="note_name" /></g><g c_partid="part_pcbtext" c_etype="" c_origin="4144.5,3188" c_rotation="90" c_mirror="0" id="gge588" locked="0" layerid="3" c_shapetype="group" ><path c_fontsize="4.5" c_fontfamily="" c_text="U2" d="M 4139.96 3188 L 4143.03 3188 L 4143.64 3187.8 L 4144.05 3187.39 L 4144.25 3186.77 L 4144.25 3186.36 L 4144.05 3185.75 L 4143.64 3185.34 L 4143.03 3185.14 L 4139.96 3185.14 M 4140.98 3183.58 L 4140.78 3183.58 L 4140.37 3183.38 L 4140.16 3183.17 L 4139.96 3182.76 L 4139.96 3181.95 L 4140.16 3181.54 L 4140.37 3181.33 L 4140.78 3181.13 L 4141.19 3181.13 L 4141.6 3181.33 L 4142.21 3181.74 L 4144.25 3183.79 L 4144.25 3180.92" fill="none"  stroke-width="0.6" c_note="note_pre" /></g><circle cx="4245.501" cy="3092.5" r="0.25" stroke-width="1" fill="none" layerid="3" id="gge441" locked="0"  /><polyline points="4047.559 3233.7326 4047.559 3065.229" stroke-width="1"  stroke-linecap="round" fill="none" layerid="10" net="" id="gge705" locked="0" /><polyline points="4381.8103 3249.4806 4063.307 3249.4806" stroke-width="1"  stroke-linecap="round" fill="none" layerid="10" net="" id="gge699" locked="0" /><polyline points="4397.5583 3065.229 4397.5583 3233.7326" stroke-width="1"  stroke-linecap="round" fill="none" layerid="10" net="" id="gge693" locked="0" /><polyline points="4063.307 3049.481 4381.8103 3049.481" stroke-width="1"  stroke-linecap="round" fill="none" layerid="10" net="" id="gge687" locked="0" /><path d="M4381.8103 3049.481A15.748 15.748 0 0 1 4397.5583 3065.229" locked="0"  fill="none" stroke-width="1" c_helper_type="arc2" net="" layerid="10" id="gge690" /><path d="M4397.5583 3233.7326A15.748 15.748 0 0 1 4381.8103 3249.4806" locked="0"  fill="none" stroke-width="1" c_helper_type="arc2" net="" layerid="10" id="gge696" /><path d="M4063.307 3249.4806A15.748 15.748 0 0 1 4047.559 3233.7326" locked="0"  fill="none" stroke-width="1" c_helper_type="arc2" net="" layerid="10" id="gge702" /><path d="M4047.559 3065.229A15.748 15.748 0 0 1 4063.307 3049.481" locked="0"  fill="none" stroke-width="1" c_helper_type="arc2" net="" layerid="10" id="gge708" /></svg>